Coordinates
version=1
nRows=17
nColumns=34
inDegrees=yes

Units are S.I. units (second, meters, Newtons, ...)
If the header above contains a line with 'inDegrees', this indicates whether rotational values are in degrees (yes) or radians (no).

endheader
time	pelvis_tilt	pelvis_list	pelvis_rotation	pelvis_tx	pelvis_ty	pelvis_tz	hip_flexion_r	hip_adduction_r	hip_rotation_r	knee_angle_r	ankle_angle_r	subtalar_angle_r	mtp_angle_r	hip_flexion_l	hip_adduction_l	hip_rotation_l	knee_angle_l	ankle_angle_l	subtalar_angle_l	mtp_angle_l	lumbar_extension	lumbar_bending	lumbar_rotation	arm_flex_r	arm_add_r	arm_rot_r	elbow_flex_r	pro_sup_r	arm_flex_l	arm_add_l	arm_rot_l	elbow_flex_l	pro_sup_l
     10.41666670	     -9.44166790	     -0.77888902	      3.32314218	      0.26098479	      0.91172032	     -0.02013931	     15.51256381	     -2.70454148	     -5.40719158	     11.03342480	     11.00247695	    -12.79030327	      0.00000000	     18.53696462	     -6.24921521	     -1.04476651	     13.37996966	      4.33773054	    -13.00303931	      0.00000000	     -1.77237934	      0.08184765	      1.59507314	     79.19101806	      7.05866912	     61.71874660	    112.47634855	     99.39126461	     76.87082296	      7.81630501	     71.50488464	    120.64046767	     77.22083087
     10.43333330	     -9.69441298	     -0.69527265	      3.10103944	      0.25747212	      0.90865173	     -0.02016187	     17.37914414	     -2.95998191	     -5.18868631	     13.82216329	     11.95984267	    -13.86000869	      0.00000000	     20.42036153	     -6.34714723	     -1.24999856	     16.23481852	      5.42656656	    -13.70554287	      0.00000000	     -2.94609663	     -0.23047197	      1.04617466	     79.69640792	      7.62975951	     62.28040754	    112.86644670	     99.68897990	     77.41730225	      6.96881292	     71.57199453	    120.08237432	     77.33753884
     10.45000000	    -10.75772378	     -0.59266932	      2.80567039	      0.25377107	      0.90465269	     -0.01991048	     20.27085622	     -3.29318923	     -5.13090390	     16.76425419	     12.38629639	    -15.32633593	      0.00000000	     23.27895452	     -6.50103605	     -1.94230674	     19.26262983	      6.36030825	    -14.36983823	      0.00000000	     -3.54832611	     -0.54154024	      0.68160938	     80.29267956	      7.89072825	     63.18599933	    112.93527774	    100.27290099	     77.86465607	      6.14163082	     72.03873148	    119.84749429	     77.55793425
     10.46666670	    -11.17104347	     -0.56159008	      2.60081635	      0.25286861	      0.90138285	     -0.01877922	     22.23712107	     -3.50430457	     -5.18120990	     19.41883748	     13.11416114	    -16.03499435	      0.00000000	     25.56718928	     -6.85928383	     -2.55931911	     22.57151555	      7.30425216	    -15.01746125	      0.00000000	     -4.65517927	     -0.80268790	      0.29475802	     80.71629830	      8.45871853	     63.61265535	    113.15315983	    100.86026603	     78.12290927	      4.98200810	     71.51597488	    118.80575461	     77.76572583
     10.48333330	    -11.12998395	     -0.53244477	      2.24130809	      0.24793186	      0.89019482	     -0.01864620	     24.26380454	     -3.76901815	     -5.37952671	     23.28043915	     13.99222627	    -16.99107575	      0.00000000	     27.63365724	     -7.32715477	     -3.25094059	     26.39931995	      8.55248062	    -15.80033914	      0.00000000	     -6.53446526	     -1.12228361	     -0.30663530	     81.89649752	      8.94152803	     63.15303816	    112.79656341	    101.05603495	     79.34280318	      3.83739445	     70.25842571	    117.23320178	     77.77026238
     10.50000000	    -12.11582064	     -0.44920340	      2.14490097	      0.23841291	      0.88420771	     -0.01913743	     27.75934412	     -4.27410136	     -5.59309349	     27.25038396	     15.07827772	    -17.84284856	      0.00000000	     30.66147048	     -7.63137451	     -4.02643851	     30.04287926	     10.59184352	    -15.49607870	      0.00000000	     -7.54380244	     -1.34825460	     -0.70633935	     83.31416068	      9.23822484	     62.89267077	    111.46256450	    101.44628368	     80.18429144	      2.63146171	     67.97089220	    114.74063596	     77.78248971
     10.51666670	    -12.54137006	     -0.55565318	      2.26953492	      0.23286590	      0.87432909	     -0.01817254	     30.66259606	     -4.66392214	     -5.91214008	     31.26229584	     16.83177519	    -18.11819440	      0.00000000	     33.26247624	     -8.14085427	     -4.40653884	     33.69723460	     12.68686253	    -15.33648273	      0.00000000	     -9.18374753	     -1.42258936	     -0.81399566	     85.35583643	      9.41006823	     63.01132771	    111.68729553	    101.71791237	     81.43063075	      2.91161073	     66.39862751	    113.77938241	     77.85383913
     10.53333330	    -13.04136515	     -0.75006490	      2.86706781	      0.23091381	      0.86599373	     -0.01839449	     33.38609759	     -5.22620323	     -6.59150993	     35.10539706	     18.60414812	    -18.41031917	      0.00000000	     36.11326325	     -8.53068215	     -4.50586438	     37.42637385	     14.96179907	    -14.28562530	      0.00000000	    -10.43871197	     -1.35071157	     -1.16185823	     86.92961113	      9.14611788	     62.82948898	    111.84795381	    101.92110346	     82.58196588	      2.76683736	     64.87864066	    111.11269575	     77.96810910
     10.55000000	    -13.57422638	     -1.08022045	      3.82192501	      0.22580538	      0.85261388	     -0.01729334	     36.23567177	     -5.85482383	     -7.41727573	     39.24898759	     20.31020717	    -18.71790234	      0.00000000	     39.27915040	     -8.84179398	     -4.15322820	     41.38972599	     17.49466102	    -13.05507773	      0.00000000	    -11.79178661	     -1.06610030	     -1.66931801	     88.65241961	      8.62794617	     61.64188656	    111.61881696	    101.98073853	     84.60184769	      2.89310252	     62.32208028	    107.22103752	     77.97739644
     10.56666670	    -13.88774686	     -1.35763442	      4.51334226	      0.22455594	      0.84123237	     -0.01698129	     38.64776044	     -6.46650258	     -8.06888201	     43.53657667	     22.19888722	    -19.01874585	      0.00000000	     42.04123027	     -9.20045141	     -3.67557474	     45.26547111	     20.39775353	    -11.29865956	      0.00000000	    -12.85754324	     -0.85937238	     -1.84302456	     89.73392866	      7.93047531	     60.34334090	    111.31437078	    101.97640535	     85.90898396	      3.31579854	     59.89296054	    104.88888469	     77.95608644
     10.58333330	    -14.47204755	     -1.72841854	      5.25358871	      0.22147599	      0.83010869	     -0.01745406	     40.96881446	     -6.97528792	     -8.69423906	     47.17484526	     24.63973281	    -18.62271424	      0.00000000	     44.87520468	     -9.52762956	     -3.16421514	     49.04326245	     23.19650498	     -9.54736264	      0.00000000	    -13.28023354	     -0.52090596	     -1.66059905	     90.44552085	      7.16937652	     59.61566805	    111.96861125	    101.93654186	     86.71328216	      4.38231217	     58.34317956	    102.46422480	     77.98101321
     10.60000000	    -14.82531216	     -2.13998648	      5.71737365	      0.21786191	      0.81696832	     -0.01667932	     43.09552139	     -7.22091616	     -8.98373635	     50.94779792	     27.29668540	    -18.00092295	      0.00000000	     47.52029528	    -10.00328796	     -2.57705221	     52.74139224	     25.50447918	     -8.32392947	      0.00000000	    -13.67105367	     -0.21022842	     -1.24512592	     91.02067795	      6.35367323	     58.86801684	    112.79536501	    101.87555310	     87.45855658	      5.54613770	     57.37617598	    100.38197081	     78.01803402
     10.61666670	    -15.94488921	     -2.28133961	      5.48475278	      0.21389187	      0.80655555	     -0.01670414	     46.07530548	     -7.30630270	     -8.68768648	     54.06259420	     29.46342402	    -17.18954353	      0.00000000	     50.61588223	    -10.32165353	     -2.25155635	     56.25386355	     27.22748747	     -7.66161798	      0.00000000	    -13.66752227	     -0.19265475	     -0.68894197	     91.83800279	      6.13280012	     58.45960949	    113.43494274	    101.84060969	     88.20236385	      6.04375077	     56.60406481	    100.74245944	     78.09113448
     10.63333330	    -16.47463239	     -2.47986626	      5.39497538	      0.21346151	      0.79792289	     -0.01623161	     48.10670505	     -7.26794201	     -8.39674629	     57.06512470	     31.98122527	    -16.14633457	      0.00000000	     52.95592170	    -10.65569648	     -1.75648365	     59.01489137	     29.07763945	     -6.75882627	      0.00000000	    -13.80633588	     -0.03984457	     -0.37920853	     92.08371830	      6.09513507	     58.57980818	    114.29191803	    101.83645124	     88.27058538	      6.45870044	     56.09366234	    100.02989027	     78.15762369
     10.65000000	    -17.76983557	     -2.43511737	      5.04512484	      0.21124917	      0.78881099	     -0.01608986	     50.96928251	     -7.36440386	     -7.90957171	     59.79352991	     32.40693629	    -16.95561856	      0.00000000	     55.68664800	    -10.76272462	     -1.56098208	     61.48271616	     29.35607766	     -7.16182234	      0.00000000	    -13.61531710	     -0.15045656	      0.07214502	     92.54375736	      6.12470722	     58.79766715	    114.63465736	    101.83973928	     88.41776233	      6.69082232	     55.85124069	    100.40509623	     78.23446228
     10.66666670	    -18.17999277	     -2.55082085	      4.93597638	      0.21385307	      0.78179687	     -0.01653246	     52.25088274	     -7.31843670	     -7.58534947	     61.55259322	     32.72539528	    -17.42014465	      0.00000000	     57.29120904	    -10.89210059	     -1.14822347	     63.09099856	     29.77912167	     -7.12389938	      0.00000000	    -13.98802308	     -0.08766106	     -0.27129693	     92.24053784	      6.46758065	     59.31329387	    114.90291626	    101.85369813	     87.92044949	      6.49287314	     55.97441690	     99.38681480	     78.25027245
     10.68333330	    -19.05749175	     -2.66678746	      4.73711496	      0.21119677	      0.77278237	     -0.01492346	     54.37266747	     -7.15170798	     -7.18862379	     63.49057848	     32.81413465	    -18.37604938	      0.00000000	     59.20940156	    -11.08532856	     -0.83644434	     64.77367336	     29.88372090	     -7.34528527	      0.00000000	    -13.66211091	     -0.15781770	     -0.07389998	     91.69233150	      6.49075469	     60.08474230	    115.43037424	    101.85313407	     87.10060116	      6.54288947	     56.98897236	    100.63297496	     78.36525506
